<svg xmlns="http://www.w3.org/2000/svg" xmlns:xlink="http://www.w3.org/1999/xlink" style="isolation:isolate" viewBox="0 0 100 100" width="100pt" height="100pt"><defs><clipPath id="_clipPath_ZCMmVRURM5XANE0h0Bv3U5S5RFR5Z6BC"><rect width="100" height="100"/></clipPath></defs><g clip-path="url(#_clipPath_ZCMmVRURM5XANE0h0Bv3U5S5RFR5Z6BC)"><g><path d=" M 40 47.083 L 33.333 47.083 L 33.333 52.917 L 40 52.917 L 40 47.083 Z  M 53.333 47.083 L 46.667 47.083 L 46.667 52.917 L 53.333 52.917 L 53.333 47.083 Z  M 66.667 47.083 L 60 47.083 L 60 52.917 L 66.667 52.917 L 66.667 47.083 Z  M 73.333 26.667 L 70 26.667 L 70 20.833 L 63.333 20.833 L 63.333 26.667 L 36.667 26.667 L 36.667 20.833 L 30 20.833 L 30 26.667 L 26.667 26.667 C 22.967 26.667 20.033 29.292 20.033 32.5 L 20 73.333 C 20 76.555 22.985 79.167 26.667 79.167 L 73.333 79.167 C 77 79.167 80 76.542 80 73.333 L 80 32.5 C 80 29.292 77 26.667 73.333 26.667 Z  M 73.333 73.333 L 26.667 73.333 L 26.667 41.25 L 73.333 41.25 L 73.333 73.333 Z " fill="rgb(0,0,0)"/><path d=" M 10 15 L 90 15 L 90 85 L 10 85 L 10 15 Z " fill="none"/></g></g></svg>