<?xml version="1.0" encoding="UTF-8" standalone="no"?><!-- Generator: Gravit.io --><svg xmlns="http://www.w3.org/2000/svg" xmlns:xlink="http://www.w3.org/1999/xlink" style="isolation:isolate" viewBox="0 0 1920 1280" width="1920pt" height="1280pt"><defs><clipPath id="_clipPath_COkYfls4hIOxx1IbjUQpdrdP8rc1UFkX"><rect width="1920" height="1280"/></clipPath></defs><g clip-path="url(#_clipPath_COkYfls4hIOxx1IbjUQpdrdP8rc1UFkX)"><mask id="_mask_hRUlrSPQKah4Z8u6ykuM20gR2GBngOYv" x="-200%" y="-200%" width="400%" height="400%"><rect x="-200%" y="-200%" width="400%" height="400%" style="fill:white;"/><path d=" M 666.964 325.892 L 1253.036 886.949 C 1414.83 1041.684 1676.98 1041.684 1838.774 886.949 C 2000.409 732.06 2000.409 481.099 1838.774 326.211 C 1676.98 171.476 1414.83 171.476 1253.036 326.211 L 666.964 886.949 C 505.17 1041.684 243.02 1041.684 81.226 886.949 C -80.409 732.06 -80.409 481.099 81.226 326.211 C 242.928 171.388 505.078 171.245 666.964 325.892 Z " fill-rule="evenodd" fill="black" stroke="none"/></mask><path d=" M 666.964 325.892 L 1253.036 886.949 C 1414.83 1041.684 1676.98 1041.684 1838.774 886.949 C 2000.409 732.06 2000.409 481.099 1838.774 326.211 C 1676.98 171.476 1414.83 171.476 1253.036 326.211 L 666.964 886.949 C 505.17 1041.684 243.02 1041.684 81.226 886.949 C -80.409 732.06 -80.409 481.099 81.226 326.211 C 242.928 171.388 505.078 171.245 666.964 325.892 Z " fill-rule="evenodd" fill="none"/><path d=" M 666.964 325.892 L 1253.036 886.949 C 1414.83 1041.684 1676.98 1041.684 1838.774 886.949 C 2000.409 732.06 2000.409 481.099 1838.774 326.211 C 1676.98 171.476 1414.83 171.476 1253.036 326.211 L 666.964 886.949 C 505.17 1041.684 243.02 1041.684 81.226 886.949 C -80.409 732.06 -80.409 481.099 81.226 326.211 C 242.928 171.388 505.078 171.245 666.964 325.892 Z " fill-rule="evenodd" fill="none" mask="url(#_mask_hRUlrSPQKah4Z8u6ykuM20gR2GBngOYv)" vector-effect="non-scaling-stroke" stroke-width="2" stroke="rgb(0,0,255)" stroke-linejoin="miter" stroke-linecap="butt" stroke-miterlimit="4"/></g></svg>