<?xml version="1.0" encoding="UTF-8" standalone="no"?><!-- Generator: Gravit.io --><svg xmlns="http://www.w3.org/2000/svg" xmlns:xlink="http://www.w3.org/1999/xlink" style="isolation:isolate" viewBox="0 0 100 100" width="100pt" height="100pt"><defs><clipPath id="_clipPath_prVYg1df0X02es7R8yjCrIgdNm5ArpIJ"><rect width="100" height="100"/></clipPath></defs><g clip-path="url(#_clipPath_prVYg1df0X02es7R8yjCrIgdNm5ArpIJ)"><path d=" M 28.603 85 C 27.709 85 26.528 84.769 25.273 83.87 C 25.174 83.793 15 76.349 15 72.273 L 15.013 72.031 C 15.485 62.404 22.756 50.498 36.628 36.627 C 50.493 22.762 62.399 15.492 72.026 15.013 L 72.187 15.006 C 72.232 15.006 72.275 15 72.318 15 C 76.483 15 83.796 25.174 83.871 25.272 C 85.755 27.913 85.071 30.866 83.362 32.083 C 82.248 32.923 70.491 40.622 69.056 41.481 C 67.513 42.362 65.402 42.195 63.52 41.064 C 61.437 39.9 59.363 38.722 57.297 37.527 C 55.856 38.522 52.326 41.194 46.826 46.799 C 41.307 52.312 38.578 55.855 37.541 57.309 C 38.479 58.936 40.468 62.415 41.095 63.572 C 42.22 65.629 42.352 67.756 41.445 69.116 C 40.635 70.464 32.793 82.372 32.084 83.353 C 31.451 84.248 30.369 84.838 29.133 84.968 C 28.97 84.987 28.797 85 28.604 85 L 28.603 85 Z " fill="rgb(0,0,0)"/></g></svg>